<svg width="193" height="85" viewBox="0 0 193 85" fill="none" xmlns="http://www.w3.org/2000/svg">
<path d="M21.5269 22.6205C21.5269 24.3321 21.1319 25.7804 20.3419 26.9654C19.5519 28.124 18.2748 28.7033 16.5105 28.7033C14.7462 28.7033 13.4428 28.1503 12.6001 27.0444C11.7575 25.9384 11.3362 24.5955 11.3362 23.0155C11.3362 20.8562 12.0735 19.1051 13.5481 17.7622C15.0227 16.3929 16.7475 15.7082 18.7225 15.7082C20.6184 15.7082 22.3563 16.4192 23.9363 17.8411C24.7526 18.5785 25.4109 19.6581 25.9112 21.0801C26.4116 22.502 26.6617 24.1741 26.6617 26.0964C26.6617 30.2833 25.5294 33.7197 23.2648 36.4056C21.0002 39.0652 17.9193 40.395 14.0221 40.395C10.1249 40.395 7.04396 39.0652 4.77936 36.4056C2.51476 33.7197 1.38246 30.3096 1.38246 26.1754C1.38246 22.0412 2.51476 18.6443 4.77936 15.9847C7.04396 13.2988 10.1249 11.9558 14.0221 11.9558V14.9182C11.2835 14.9182 9.08473 15.9847 7.42578 18.1176C5.76683 20.2242 4.93736 22.9102 4.93736 26.1754C4.93736 29.4406 5.76683 32.1397 7.42578 34.2727C9.08473 36.3793 11.2835 37.4326 14.0221 37.4326C16.7607 37.4326 18.9594 36.3793 20.6184 34.2727C22.2773 32.1397 23.1068 29.5723 23.1068 26.5704C23.1068 23.5421 22.6723 21.475 21.8034 20.3691C20.9344 19.2368 19.9206 18.6706 18.762 18.6706C17.6033 18.6706 16.6027 19.0788 15.76 19.8951C14.9174 20.7114 14.4961 21.7515 14.4961 23.0155C14.4961 23.8055 14.6672 24.4638 15.0096 24.9904C15.3519 25.4908 15.8522 25.7409 16.5105 25.7409C17.7481 25.7409 18.367 24.7008 18.367 22.6205H21.5269ZM28.8326 22.818V20.2506H34.4809L35.0339 22.66C36.6139 20.7904 38.6415 19.8556 41.1168 19.8556C43.592 19.8556 45.5011 20.8167 46.8441 22.739C48.187 24.635 48.8585 27.0839 48.8585 30.0858C48.8585 33.0614 48.0685 35.5235 46.4886 37.4721C44.9086 39.4207 42.6572 40.395 39.7343 40.395C38.365 40.395 36.864 40.1317 35.2314 39.605V45.9248H38.2728V48.4923H28.8326V45.9248H31.874V22.818H28.8326ZM45.5011 30.2833C45.5011 28.0977 45.0666 26.3071 44.1977 24.9114C43.3287 23.5158 42.1042 22.818 40.5243 22.818C38.9706 22.818 37.6935 23.4368 36.6929 24.6744C35.7186 25.9121 35.2314 27.3999 35.2314 29.1378V36.2081C36.6534 37.0244 38.0622 37.4326 39.4578 37.4326C41.2747 37.4326 42.7362 36.7874 43.8422 35.4971C44.9481 34.1805 45.5011 32.4426 45.5011 30.2833ZM51.0516 12.9433V10.3759H57.4504V37.4326H60.8868V40H51.0121V37.4326H54.093V12.9433H51.0516ZM80.5542 28.7823V30.8758H66.6111C66.7428 32.798 67.3089 34.378 68.3095 35.6156C69.3102 36.8269 70.6531 37.4326 72.3384 37.4326C73.4444 37.4326 74.4319 37.3141 75.3008 37.0771C76.1961 36.8401 76.815 36.6294 77.1573 36.4451C77.4996 36.2344 77.9736 35.9316 78.5792 35.5366L80.0407 37.7486C78.0394 39.5128 75.5378 40.395 72.5359 40.395C69.534 40.395 67.2299 39.4338 65.6236 37.5116C64.0437 35.563 63.2537 33.1009 63.2537 30.1253C63.2537 27.1497 64.0437 24.7008 65.6236 22.7785C67.2299 20.8299 69.4023 19.8556 72.1409 19.8556C74.9058 19.8556 76.9993 20.6851 78.4212 22.344C79.8432 24.003 80.5542 26.1491 80.5542 28.7823ZM77.1968 28.0713C77.0388 26.4651 76.5516 25.1879 75.7353 24.24C74.9453 23.292 73.7999 22.818 72.2989 22.818C70.8243 22.818 69.613 23.3052 68.665 24.2795C67.7171 25.2274 67.0851 26.4914 66.7691 28.0713H77.1968ZM83.3558 22.818V20.2506H89.7546V37.4326H93.191V40H83.3163V37.4326H86.3972V22.818H83.3558ZM87.9772 16.7352C87.3979 16.7352 86.9239 16.5245 86.5552 16.1032C86.1866 15.6819 86.0022 15.1816 86.0022 14.6022C86.0022 13.9966 86.1997 13.4699 86.5947 13.0223C87.016 12.5746 87.5164 12.3508 88.0957 12.3508C88.675 12.3508 89.149 12.5615 89.5176 12.9828C89.8863 13.4041 90.0706 13.9176 90.0706 14.5232C90.0706 15.1026 89.86 15.616 89.4386 16.0637C89.0437 16.5114 88.5565 16.7352 87.9772 16.7352ZM112.562 10.3759V37.6301H115.801V39.289C114.827 39.8947 113.721 40.1975 112.483 40.1975C111.246 40.1975 110.39 40.0263 109.916 39.684C109.468 39.3154 109.231 38.6965 109.205 37.8276C107.651 39.5392 105.663 40.395 103.241 40.395C100.818 40.395 98.9353 39.447 97.5924 37.5511C96.2494 35.6288 95.5779 33.1799 95.5779 30.2043C95.5779 27.2024 96.3679 24.7271 97.9479 22.7785C99.5278 20.8299 101.779 19.8556 104.702 19.8556C106.124 19.8556 107.625 20.1321 109.205 20.6851V12.9433H106.164V10.3759H112.562ZM98.9353 30.0068C98.9353 32.1661 99.3698 33.9435 100.239 35.3391C101.108 36.7348 102.319 37.4326 103.873 37.4326C105.453 37.4326 106.73 36.8138 107.704 35.5761C108.705 34.3385 109.205 32.8507 109.205 31.1128V24.082C107.809 23.2393 106.295 22.818 104.663 22.818C103.056 22.818 101.7 23.4763 100.594 24.7929C99.4883 26.0832 98.9353 27.8212 98.9353 30.0068ZM117.802 22.818V20.2506H124.2V37.4326H127.637V40H117.762V37.4326H120.843V22.818H117.802ZM122.423 16.7352C121.844 16.7352 121.37 16.5245 121.001 16.1032C120.632 15.6819 120.448 15.1816 120.448 14.6022C120.448 13.9966 120.646 13.4699 121.04 13.0223C121.462 12.5746 121.962 12.3508 122.541 12.3508C123.121 12.3508 123.595 12.5615 123.963 12.9828C124.332 13.4041 124.516 13.9176 124.516 14.5232C124.516 15.1026 124.306 15.616 123.884 16.0637C123.489 16.5114 123.002 16.7352 122.423 16.7352ZM135.83 37.4326H139.266V40H129.431V37.4326H132.473V22.818H129.431V20.2506H135.08L135.554 22.344C136.449 21.8437 137.173 21.4619 137.726 21.1986C138.279 20.9089 139.069 20.6192 140.096 20.3296C141.149 20.0136 142.163 19.8556 143.137 19.8556C145.402 19.8556 146.956 20.5271 147.798 21.87C148.667 23.213 149.102 25.0694 149.102 27.4394V37.6301H152.341V39.289C151.366 39.8947 150.234 40.1975 148.944 40.1975C147.68 40.1975 146.824 39.9868 146.376 39.5655C145.955 39.1179 145.744 38.4069 145.744 37.4326V27.4394C145.744 25.9121 145.547 24.7666 145.152 24.003C144.757 23.213 143.848 22.818 142.426 22.818C141.004 22.818 138.806 23.608 135.83 25.1879V37.4326ZM165.784 36.9981C167.812 37.2351 169.365 37.8407 170.445 38.815C171.551 39.763 172.104 41.0665 172.104 42.7254C172.104 44.4107 171.209 45.8458 169.418 47.0308C167.654 48.2421 165.126 48.8477 161.834 48.8477C159.464 48.8477 157.621 48.2816 156.304 47.1493C154.988 46.0433 154.329 44.5687 154.329 42.7254C154.329 40.9085 155.291 39.4602 157.213 38.3805C155.396 37.8276 154.487 36.8006 154.487 35.2996C154.487 33.7987 155.304 32.7717 156.936 32.2187C155.462 30.9021 154.724 29.1905 154.724 27.0839C154.724 24.9509 155.409 23.213 156.778 21.87C158.174 20.5271 160.123 19.8556 162.624 19.8556C164.178 19.8556 165.56 20.1452 166.772 20.7246H173.407V23.5685H169.694C170.247 24.5955 170.524 25.7278 170.524 26.9654C170.524 29.0193 169.826 30.7178 168.43 32.0607C167.061 33.4037 165.126 34.0752 162.624 34.0752H159.227C158.306 34.0752 157.845 34.4307 157.845 35.1416C157.845 35.721 158.306 36.0764 159.227 36.2081L165.784 36.9981ZM162.624 22.818C161.202 22.818 160.083 23.213 159.267 24.003C158.477 24.7929 158.082 25.7936 158.082 27.0049C158.082 28.1898 158.477 29.1773 159.267 29.9673C160.083 30.7309 161.202 31.1128 162.624 31.1128C164.046 31.1128 165.152 30.7309 165.942 29.9673C166.758 29.1773 167.166 28.1898 167.166 27.0049C167.166 25.7936 166.758 24.7929 165.942 24.003C165.152 23.213 164.046 22.818 162.624 22.818ZM160.926 39.4075C160.004 39.6182 159.227 40.0658 158.595 40.7505C157.99 41.4351 157.687 42.1724 157.687 42.9624C157.687 43.7787 158.055 44.4634 158.793 45.0164C159.53 45.5957 160.544 45.8853 161.834 45.8853C163.941 45.8853 165.613 45.5562 166.851 44.8979C168.114 44.2659 168.746 43.4759 168.746 42.5279C168.746 41.0533 167.759 40.1975 165.784 39.9605L160.926 39.4075Z" fill="#F8F5F0"/>
<path d="M131.442 44.4436V46.6161L116.512 69.1304H128.796V66.405H131.561V72.0928H111.93V69.9204L126.821 47.406H122.753C118.223 47.406 115.05 47.8537 113.233 48.749C111.443 49.618 110.547 51.0004 110.547 52.8964C110.547 53.6863 110.719 54.3447 111.061 54.8713C111.403 55.3716 111.904 55.6218 112.562 55.6218C113.8 55.6218 114.418 54.5817 114.418 52.5014H117.578C117.578 54.213 117.183 55.6613 116.393 56.8463C115.603 58.0049 114.326 58.5842 112.562 58.5842C110.798 58.5842 109.494 58.0312 108.652 56.9253C107.809 55.8193 107.388 54.4763 107.388 52.8964C107.388 50.3158 108.612 48.2618 111.061 46.7346C113.51 45.2073 117.407 44.4436 122.753 44.4436H131.442ZM137.488 69.6044C135.829 67.6558 135 65.1937 135 62.2181C135 59.2425 135.829 56.7936 137.488 54.8713C139.147 52.9227 141.478 51.9484 144.479 51.9484C147.481 51.9484 149.812 52.9227 151.471 54.8713C153.13 56.7936 153.959 59.2425 153.959 62.2181C153.959 65.1937 153.13 67.6558 151.471 69.6044C149.812 71.5267 147.481 72.4878 144.479 72.4878C141.478 72.4878 139.147 71.5267 137.488 69.6044ZM139.977 56.9648C138.897 58.334 138.357 60.0852 138.357 62.2181C138.357 64.351 138.897 66.1021 139.977 67.4714C141.056 68.8407 142.557 69.5254 144.479 69.5254C146.402 69.5254 147.903 68.8407 148.982 67.4714C150.062 66.1021 150.602 64.351 150.602 62.2181C150.602 60.0852 150.062 58.334 148.982 56.9648C147.903 55.5955 146.402 54.9108 144.479 54.9108C142.557 54.9108 141.056 55.5955 139.977 56.9648ZM162.523 69.5254H165.959V72.0928H156.124V69.5254H159.165V54.9108H156.124V52.3434H161.772L162.246 54.4368C163.142 53.9365 163.866 53.5547 164.419 53.2914C164.972 53.0017 165.762 52.712 166.789 52.4224C167.842 52.1064 168.856 51.9484 169.83 51.9484L172.042 52.5409L171.133 55.7798L169.356 55.3058C167.144 55.3058 164.866 55.8588 162.523 56.9648V69.5254ZM184.994 69.0909C187.021 69.3279 188.575 69.9335 189.654 70.9078C190.76 71.8558 191.313 73.1593 191.313 74.8182C191.313 76.5035 190.418 77.9386 188.627 79.1236C186.863 80.3349 184.335 80.9405 181.044 80.9405C178.674 80.9405 176.83 80.3744 175.514 79.2421C174.197 78.1361 173.539 76.6615 173.539 74.8182C173.539 73.0013 174.5 71.553 176.422 70.4734C174.605 69.9204 173.697 68.8934 173.697 67.3924C173.697 65.8915 174.513 64.8645 176.146 64.3115C174.671 62.9949 173.934 61.2833 173.934 59.1767C173.934 57.0437 174.619 55.3058 175.988 53.9628C177.383 52.6199 179.332 51.9484 181.834 51.9484C183.387 51.9484 184.77 52.2381 185.981 52.8174H192.617V55.6613H188.904C189.457 56.6883 189.733 57.8206 189.733 59.0582C189.733 61.1121 189.036 62.8106 187.64 64.1535C186.271 65.4965 184.335 66.168 181.834 66.168H178.437C177.515 66.168 177.054 66.5235 177.054 67.2345C177.054 67.8138 177.515 68.1693 178.437 68.3009L184.994 69.0909ZM181.834 54.9108C180.412 54.9108 179.293 55.3058 178.476 56.0958C177.686 56.8858 177.291 57.8864 177.291 59.0977C177.291 60.2827 177.686 61.2701 178.476 62.0601C179.293 62.8237 180.412 63.2056 181.834 63.2056C183.256 63.2056 184.362 62.8237 185.152 62.0601C185.968 61.2701 186.376 60.2827 186.376 59.0977C186.376 57.8864 185.968 56.8858 185.152 56.0958C184.362 55.3058 183.256 54.9108 181.834 54.9108ZM180.135 71.5003C179.214 71.711 178.437 72.1586 177.805 72.8433C177.199 73.5279 176.896 74.2652 176.896 75.0552C176.896 75.8715 177.265 76.5562 178.002 77.1092C178.74 77.6885 179.753 77.9781 181.044 77.9781C183.15 77.9781 184.822 77.649 186.06 76.9907C187.324 76.3587 187.956 75.5687 187.956 74.6207C187.956 73.1461 186.968 72.2903 184.994 72.0533L180.135 71.5003Z" fill="#F8F5F0"/>
<path d="M54.0382 52.0627V50.5383H57.8375V60.7401H59.8779V62.2645H54.0148V60.7401H55.844V52.0627H54.0382ZM56.7821 48.451C56.4382 48.451 56.1567 48.3259 55.9379 48.0758C55.719 47.8256 55.6095 47.5286 55.6095 47.1846C55.6095 46.825 55.7268 46.5123 55.9613 46.2465C56.2115 45.9807 56.5085 45.8478 56.8525 45.8478C57.1965 45.8478 57.4779 45.9729 57.6968 46.223C57.9157 46.4732 58.0251 46.7781 58.0251 47.1377C58.0251 47.4817 57.9 47.7865 57.6499 48.0523C57.4154 48.3181 57.1261 48.451 56.7821 48.451ZM64.7426 60.7401H66.783V62.2645H60.9433V60.7401H62.7491V52.0627H60.9433V50.5383H64.297L64.5784 51.7813C65.11 51.4842 65.54 51.2575 65.8683 51.1011C66.1966 50.9292 66.6657 50.7572 67.2755 50.5852C67.9009 50.3976 68.5028 50.3038 69.0813 50.3038C70.4259 50.3038 71.3484 50.7025 71.8487 51.4998C72.3646 52.2972 72.6226 53.3995 72.6226 54.8066V60.8574H74.5457V61.8424C73.9672 62.202 73.2949 62.3818 72.5288 62.3818C71.7783 62.3818 71.2702 62.2567 71.0044 62.0065C70.7542 61.7407 70.6292 61.3186 70.6292 60.7401V54.8066C70.6292 53.8998 70.5119 53.2197 70.2774 52.7663C70.0428 52.2972 69.5034 52.0627 68.6592 52.0627C67.8149 52.0627 66.5093 52.5317 64.7426 53.4698V60.7401ZM88.3687 44.6752V60.8574H90.2918V61.8424C89.7133 62.202 89.0566 62.3818 88.3218 62.3818C87.5869 62.3818 87.0788 62.2801 86.7974 62.0769C86.5316 61.858 86.3909 61.4906 86.3752 60.9746C85.4528 61.9909 84.2723 62.499 82.8339 62.499C81.3955 62.499 80.2776 61.9362 79.4802 60.8105C78.6828 59.6691 78.2841 58.215 78.2841 56.4483C78.2841 54.6659 78.7532 53.1962 79.6913 52.0392C80.6294 50.8823 81.9662 50.3038 83.7016 50.3038C84.5459 50.3038 85.4371 50.4679 86.3752 50.7963V46.1996H84.5694V44.6752H88.3687ZM80.2776 56.331C80.2776 57.6131 80.5356 58.6685 81.0515 59.4971C81.5675 60.3258 82.2867 60.7401 83.2091 60.7401C84.1472 60.7401 84.9055 60.3727 85.484 59.6378C86.0782 58.903 86.3752 58.0196 86.3752 56.9877V52.8132C85.5466 52.3129 84.6476 52.0627 83.6782 52.0627C82.7245 52.0627 81.9193 52.4536 81.2626 53.2353C80.6059 54.0014 80.2776 55.0333 80.2776 56.331ZM101.611 55.604V56.847H93.3322C93.4103 57.9883 93.7465 58.9264 94.3406 59.6613C94.9347 60.3805 95.7321 60.7401 96.7328 60.7401C97.3894 60.7401 97.9757 60.6697 98.4917 60.529C99.0233 60.3883 99.3907 60.2632 99.594 60.1538C99.7972 60.0287 100.079 59.8489 100.438 59.6144L101.306 60.9277C100.118 61.9753 98.6324 62.499 96.85 62.499C95.0676 62.499 93.6996 61.9284 92.7458 60.787C91.8078 59.63 91.3387 58.1681 91.3387 56.4014C91.3387 54.6346 91.8078 53.1806 92.7458 52.0392C93.6996 50.8823 94.9895 50.3038 96.6155 50.3038C98.2572 50.3038 99.5002 50.7963 100.344 51.7813C101.189 52.7663 101.611 54.0405 101.611 55.604ZM99.6174 55.1819C99.5236 54.2281 99.2344 53.4698 98.7497 52.907C98.2806 52.3441 97.6005 52.0627 96.7093 52.0627C95.8338 52.0627 95.1145 52.3519 94.5517 52.9304C93.9888 53.4933 93.6136 54.2438 93.426 55.1819H99.6174Z" fill="#F8F5F0"/>
<line x1="170.823" y1="77.279" x2="111.841" y2="77.279" stroke="#F8F5F0" stroke-width="1.5" stroke-linecap="round"/>
</svg>
