<svg xmlns="http://www.w3.org/2000/svg" viewBox="0 0 64 64" role="img" aria-label="Opleiding in de Zorg">
  <rect width="64" height="64" rx="14" fill="#32AC98"/>
  <g transform="translate(16.7 10) scale(0.611)">
    <path d="M22.2711 24.0197C22.2711 25.7905 21.8624 27.2888 21.0451 28.5148C20.2279 29.7135 18.9066 30.3128 17.0813 30.3128C15.256 30.3128 13.9075 29.7407 13.0357 28.5965C12.164 27.4523 11.7281 26.0629 11.7281 24.4283C11.7281 22.1944 12.4909 20.3828 14.0165 18.9934C15.5421 17.5767 17.3265 16.8684 19.3697 16.8684C21.3312 16.8684 23.1292 17.604 24.7638 19.0751C25.6083 19.8379 26.2894 20.9549 26.807 22.426C27.3246 23.8971 27.5834 25.627 27.5834 27.6157C27.5834 31.9474 26.412 35.5026 24.0691 38.2813C21.7262 41.0329 18.5388 42.4086 14.5068 42.4086C10.4749 42.4086 7.28748 41.0329 4.94459 38.2813C2.6017 35.5026 1.43025 31.9746 1.43025 27.6975C1.43025 23.4203 2.6017 19.906 4.94459 17.1545C7.28748 14.3757 10.4749 12.9863 14.5068 12.9863V16.0511C11.6736 16.0511 9.3988 17.1545 7.6825 19.3611C5.9662 21.5406 5.10804 24.3194 5.10804 27.6975C5.10804 31.0756 5.9662 33.868 7.6825 36.0747C9.3988 38.2541 11.6736 39.3438 14.5068 39.3438C17.3401 39.3438 19.6149 38.2541 21.3312 36.0747C23.0475 33.868 23.9056 31.2118 23.9056 28.1061C23.9056 24.9732 23.4561 22.8346 22.5571 21.6904C21.6581 20.519 20.6093 19.9332 19.4106 19.9332C18.2119 19.9332 17.1767 20.3555 16.3049 21.2C15.4331 22.0446 14.9972 23.1207 14.9972 24.4283C14.9972 25.2456 15.1743 25.9267 15.5285 26.4715C15.8826 26.9892 16.4002 27.248 17.0813 27.248C18.3617 27.248 19.0019 26.1719 19.0019 24.0197H22.2711Z" fill="#F8F5F0"/>
    <path d="M46.0592 31.3345V33.5821L30.6125 56.8748H43.3213V54.0551H46.1818V59.9396H25.8723V57.6921L41.2781 34.3994H37.0691C32.3833 34.3994 29.1005 34.8625 27.2208 35.7888C25.3683 36.6878 24.442 38.118 24.442 40.0795C24.442 40.8968 24.6191 41.5779 24.9732 42.1227C25.3274 42.6403 25.845 42.8992 26.5261 42.8992C27.8065 42.8992 28.4467 41.8231 28.4467 39.6709H31.7159C31.7159 41.4417 31.3072 42.94 30.4899 44.1659C29.6726 45.3646 28.3514 45.964 26.5261 45.964C24.7008 45.964 23.3523 45.3919 22.4805 44.2477C21.6087 43.1035 21.1729 41.7141 21.1729 40.0795C21.1729 37.4097 22.4396 35.2848 24.9732 33.7047C27.5068 32.1246 31.5388 31.3345 37.0691 31.3345H46.0592Z" fill="#F8F5F0"/>
  </g>
</svg>
