<?xml version="1.0" encoding="UTF-8"?>
<svg id="uuid-c4838d74-7d3b-4324-9007-b81140d95569" data-name="svg1" xmlns="http://www.w3.org/2000/svg" viewBox="0 0 558.96 126.2">
  <defs>
    <style>
      .uuid-5238a95e-84a8-40f0-a04c-3d0fd5d71faf {
        fill: #eb503c;
      }
    </style>
  </defs>
  <g id="uuid-b9076482-0635-4bdb-bc5d-c9c587f83b1f" data-name="layer-MC0">
    <path id="uuid-3c8aed02-0bc5-4c41-8e66-fa2e4dad800c" data-name="path1" class="uuid-5238a95e-84a8-40f0-a04c-3d0fd5d71faf" d="M558.96,105.3v-39.87h-10v6.14c-2.86-4.48-7-6.72-12.43-6.72s-9.91,1.89-13.43,5.68-5.29,8.66-5.29,14.61,1.77,10.85,5.32,14.68c3.55,3.84,7.99,5.75,13.33,5.75s9.5-2.41,12.51-7.22v6.93c0,3.53-.89,6.17-2.68,7.93-1.79,1.76-4.01,2.64-6.68,2.64s-4.88-.51-6.65-1.54c-1.76-1.03-2.95-2.42-3.57-4.18h-9.86c.47,4.62,2.49,8.18,6.04,10.68,3.55,2.5,8.34,3.75,14.36,3.75s10.7-1.8,14.04-5.39c3.33-3.6,5-8.23,5-13.9M548.95,85.23c0,3.62-1.05,6.47-3.14,8.54-2.1,2.07-4.54,3.11-7.33,3.11s-5.23-1.05-7.32-3.14c-2.1-2.1-3.14-4.95-3.14-8.57s1.04-6.45,3.11-8.5c2.07-2.05,4.51-3.07,7.32-3.07s5.26,1.04,7.36,3.11c2.09,2.07,3.14,4.92,3.14,8.54M501.2,105.02h10v-23.29c0-5.29-1.43-9.42-4.29-12.4-2.86-2.97-6.55-4.47-11.07-4.47-5.67,0-9.77,2.17-12.29,6.5v-5.93h-10.07v39.59h10.07v-21.87c0-3.09.8-5.47,2.39-7.11,1.6-1.64,3.75-2.47,6.47-2.47s4.86.82,6.43,2.47c1.57,1.64,2.36,4.01,2.36,7.11v21.87ZM462.05,59.72c1.19-1.19,1.79-2.64,1.79-4.36s-.6-3.17-1.79-4.36c-1.19-1.19-2.63-1.79-4.32-1.79s-3.13.6-4.32,1.79c-1.19,1.19-1.79,2.64-1.79,4.36s.6,3.17,1.79,4.36c1.19,1.19,2.63,1.79,4.32,1.79s3.13-.6,4.32-1.79M442.06,75.15h2.5v-10.29c-5.05,0-8.91,2.53-11.58,7.57v-7h-10.07v39.59h10.07v-19.86c0-3.67.76-6.25,2.29-7.75,1.52-1.5,3.79-2.25,6.79-2.25M400.16,105.02h10.07v-52.87h-10.07v52.87ZM392.92,88.51c.19-1.19.29-2.48.29-3.86,0-6-1.86-10.8-5.57-14.4-3.72-3.6-8.47-5.39-14.26-5.39s-10.5,1.85-14.15,5.54c-3.64,3.69-5.46,8.61-5.46,14.76s1.81,11.09,5.43,14.83c3.62,3.74,8.31,5.61,14.08,5.61,4.67,0,8.65-1.19,11.93-3.57,3.29-2.38,5.5-5.45,6.65-9.22h-10.86c-1.67,2.86-4.24,4.29-7.72,4.29-2.57,0-4.69-.79-6.36-2.36-1.67-1.57-2.62-3.64-2.86-6.22h28.87ZM382.78,82.01h-18.72c.33-2.62,1.35-4.72,3.04-6.29,1.69-1.57,3.8-2.36,6.32-2.36s4.68.79,6.47,2.36c1.79,1.57,2.75,3.67,2.89,6.29M342.34,105.02h6.36v-8.43h-4.79c-1.53,0-2.6-.27-3.21-.82-.62-.55-.93-1.47-.93-2.75v-19.36h8.86v-8.22h-8.86v-9.79h-10.07v9.79h-4.22v8.22h4.22v19.36c0,4.29,1.09,7.36,3.29,9.22,2.19,1.86,5.31,2.79,9.36,2.79M297.18,77.01c0-1.33.52-2.38,1.57-3.14,1.05-.76,2.52-1.14,4.43-1.14,3.81,0,5.86,1.67,6.15,5h10.29c-.19-3.95-1.74-7.08-4.64-9.39-2.91-2.31-6.77-3.47-11.58-3.47s-8.67,1.17-11.57,3.5c-2.91,2.33-4.36,5.22-4.36,8.65,0,2.57.79,4.66,2.36,6.25,1.57,1.6,3.47,2.7,5.68,3.32,2.21.62,4.44,1.14,6.68,1.57,2.24.43,4.15,1.04,5.72,1.82,1.57.79,2.36,1.86,2.36,3.21s-.57,2.45-1.71,3.29c-1.14.83-2.64,1.25-4.5,1.25-3.86,0-5.98-1.67-6.36-5h-10.29c.29,4.15,1.93,7.32,4.93,9.54,3,2.21,6.85,3.32,11.54,3.32s8.55-1.12,11.58-3.36c3.03-2.24,4.54-5.15,4.54-8.72,0-2.72-.79-4.9-2.36-6.54s-3.47-2.79-5.68-3.43c-2.21-.64-4.44-1.18-6.68-1.61-2.24-.43-4.15-1.02-5.72-1.79-1.57-.76-2.36-1.81-2.36-3.14M269.31,105.02h10v-23.29c0-5.33-1.44-9.48-4.32-12.43s-6.68-4.43-11.4-4.43c-3,0-5.71.71-8.11,2.14-2.41,1.43-4.3,3.38-5.68,5.86-1.29-2.57-3.11-4.55-5.47-5.93-2.36-1.38-5.04-2.07-8.04-2.07-5.67,0-9.77,2.17-12.29,6.5v-5.93h-10.07v39.59h10.07v-21.87c0-3.09.8-5.47,2.39-7.11,1.6-1.64,3.75-2.47,6.47-2.47s4.86.82,6.43,2.47,2.36,4.01,2.36,7.11v21.87h10v-21.87c0-3.09.8-5.47,2.39-7.11,1.6-1.64,3.75-2.47,6.47-2.47s4.86.82,6.43,2.47,2.36,4.01,2.36,7.11v21.87ZM196.29,105.02h10.65l-17.58-50.02h-11.93l-17.65,50.02h10.65l3.21-9.36h19.44l3.22,9.36ZM190.5,87.94h-14.22l7.07-20.79,7.15,20.79ZM462.76,65.43h-10.08v39.59h10.08v-39.59Z"/>
    <path id="uuid-6f1479e5-1fba-44da-a38d-caaf49379b3c" data-name="path3" class="uuid-5238a95e-84a8-40f0-a04c-3d0fd5d71faf" d="M39.16,47.59C16.57,47.59-1.57,66.73.11,89.69c1.5,20.58,19.2,36.23,39.83,36.23h17.57V47.59h-18.35Z"/>
    <path id="uuid-7b2d6dba-3913-4213-bb28-aa23b34b2247" data-name="path5" class="uuid-5238a95e-84a8-40f0-a04c-3d0fd5d71faf" d="M36.86,31.51c-5.65-.63-10.24-5.22-10.86-10.87-.82-7.45,4.99-13.75,12.27-13.75,6.82,0,12.35,5.53,12.35,12.35,0,7.29-6.31,13.1-13.76,12.27M37.34.02c-9.79.47-17.84,8.54-18.28,18.33-.49,11.03,8.3,20.12,19.22,20.12s19.23-8.61,19.23-19.24S48.39-.5,37.34.02"/>
    <path id="uuid-63b4ecfe-0d8d-4090-8c20-f55cf4ec3e00" data-name="path7" class="uuid-5238a95e-84a8-40f0-a04c-3d0fd5d71faf" d="M66.8,126.2h57.51V42.6C124.32,19.13,105.29.11,81.83.11h-15.02v126.09Z"/>
  </g>
</svg>