<svg xmlns="http://www.w3.org/2000/svg" width="225.481" height="139.465" viewBox="0 0 225.481 139.465"><g id="Group_2" data-name="Group 2" transform="translate(-831 -460.994)"><g id="Group_1" data-name="Group 1" transform="translate(831 460.994)"><path id="Path_1" data-name="Path 1" d="M96.826-102.658c-1.177-.3-2.543-.4-3.7-.717-1.257-3.736-2.665-7.583-4.178-11.579-1.468-3.875-2.932-8.443-2.388-13.132.624-5.374,5.036-7.759,10.744-7.759,7.492,0,14.446,2.587,21.248,3.342,1.429-1.037,1.438-3.336.6-4.655-2.021-3.169-7.551-4.933-11.58-5.73-.249-4.834-4.312-5.948-8.237-6.8a27.656,27.656,0,0,0-9.431-.478c-11.33,1.779-16.361,12.422-17.788,23.517a67.805,67.805,0,0,1-4.178,16.473c-4.909-.86-9.873-1.666-14.683-2.626,2.958-1.619,6.58-6.765,4.417-11.459-2.15-4.664-8.011-6.772-13.728-8.834-5.321-1.919-11.344-4.256-16.116-6.566a61.029,61.029,0,0,1-22.2-17.31c-.583-.713-1.59-2.651-2.746-2.984-.619-.179-1.817.368-2.864.119-.074,3.3.189,7.289.358,10.744,5.392,6.439,13.2,11.208,21.248,14.8,1.114.5,3.075.652,3.223,2.029-8.4-2.231-16.823-6.008-22.8-10.982-.321-.266-.538-.9-1.075-.716a88.763,88.763,0,0,0,2.268,10.385c5.716,4.031,13.057,6.926,20.891,8.834.94.228,2.476.29,2.745,1.552-8.02-1.011-15.51-2.555-21.845-5.252a69.263,69.263,0,0,0,4.656,9.908A72.95,72.95,0,0,0,24.6-116.267c1.828.083,4.251-.615,4.895.836a102.268,102.268,0,0,1-17.309.6C22.733-98.162,38.947-86.123,63.042-82.6c-.933-9.082,1.424-13.276,7.043-16,8.646-4.186,21.332-3.953,28.532,1.313,4.12,3.014,7.633,7.913,7.163,14.325,8.434-1.792,14.88-5.573,19.458-11.221a63.71,63.71,0,0,1-9.192-3.342c-.935-.405-2.109-.642-2.626-1.432,2.087.295,4.112,1.12,6.328,1.67a38.419,38.419,0,0,0,7.042,1.194,23.374,23.374,0,0,0,3.343-5.73c-4.879.49-9.6-.506-13.37-1.313-.479-.1-1.362.081-1.552-.6,2.388-.179,5.429.363,8.357.24a29.189,29.189,0,0,0,7.759-1.314,28.3,28.3,0,0,0,1.433-6.8c-3.313,2.01-8.8,2.755-14.206,2.626-.635-.016-1.676.219-2.029-.478a92.5,92.5,0,0,0,9.431-1.671c2.089-.577,6.591-1.949,7.281-3.82s-.1-4.506.359-7.043c-.662-.374-1.546-.525-2.15-.955-4,3.349-7.484,6.429-14.683,7.639a90.238,90.238,0,0,1-10.266.956c-3.963.166-7.75-.445-10.386.835C91.451-111.259,94.418-104.918,96.826-102.658ZM101-143.842c1.38-1.614,5.547-1.4,4.656,1.313C104.991-140.5,101.943-143.053,101-143.842Z" transform="translate(0 159.994)" fill="#ff7d23"></path><path id="Path_2" data-name="Path 2" d="M100.767-64.114a19.023,19.023,0,0,0,3.223-2.148c2.673-2.734,2.866-8.061.358-10.863C100.616-81.3,90.566-80.487,85.606-78.2V-47.52c8.58,3.535,24.186,2.683,22.563-9.073C107.611-60.633,104.233-62.678,100.767-64.114ZM98.5-66.978c-2.015,1.492-4.409,1.572-7.044,2.03V-75.931c2.347-1.09,6.341-.941,7.88.6C101.524-73.145,100.576-68.516,98.5-66.978Zm1.194,16.473c-1.925,1.172-5.553,1.267-8.239.358v-11.7c2.947-.881,7-.609,8.835,1.314C102.634-58.077,102.765-52.375,99.693-50.505Z" transform="translate(-10.984 149.741)" fill="#ff7d23"></path><path id="Path_3" data-name="Path 3" d="M183.909-71.211h.239v5.73h3.342v3.1h-3.223c.2,3.044-.656,9.337-.119,12.534a2.533,2.533,0,0,0,1.432,1.91,7.385,7.385,0,0,0,1.91-.119v2.865a6.656,6.656,0,0,1-6.685-1.074c-2.874-3.081-.555-10.582-1.313-16-.52-.277-1.551-.041-2.268-.119v-3.1h2.268V-69.9C180.886-70.415,182.51-70.7,183.909-71.211Z" transform="translate(-22.74 148.602)" fill="#ff7d23"></path><path id="Path_4" data-name="Path 4" d="M127.012-64.923c-.242,1.151-.627,2.158-.836,3.342-1.438-.357-3.291-.529-4.416.239v17.19H117.1V-63.491C119.516-64.8,123.428-65.177,127.012-64.923Z" transform="translate(-15.026 147.805)" fill="#ff7d23"></path><path id="Path_5" data-name="Path 5" d="M147.33-54.548c-.011-6.444-2.374-10.917-8.953-10.5-4.7.294-7.653,4.277-8,8.834-.3,3.907.34,7.687,2.745,10.027,2.836,2.759,9.441,3.3,13.489.836a22.58,22.58,0,0,1-1.075-2.865c-4.236,2.314-11.166,1.238-10.743-4.536C139.072-53.255,143.182-53.921,147.33-54.548Zm-4.418-1.791c-2.891.292-5.49.876-8.356,1.194.049-2.214.051-3.982,1.194-5.491,1.335-1.764,4.818-2.094,6.207-.119C142.732-59.655,142.771-58.246,142.912-56.339Z" transform="translate(-16.72 147.815)" fill="#ff7d23"></path><path id="Path_6" data-name="Path 6" d="M170.726-44.16H165.95v-8c0-2.754.429-5.854-.119-7.76-.714-2.478-4.159-2.517-6.686-1.552V-44.16h-4.655V-63.5c3.415-1.69,10.858-2.433,14.086,0C172.821-60.3,169.8-51.339,170.726-44.16Z" transform="translate(-19.823 147.812)" fill="#ff7d23"></path><path id="Path_7" data-name="Path 7" d="M206.248-63.135c-2.713-2.713-9.374-2.228-12.892-.239a23.933,23.933,0,0,1,1.074,2.626c2.826-1.566,10.4-2.571,9.192,3.224-4.1.438-7.624.933-9.788,3.1-2.134,2.139-2.07,6.6-.12,8.595,3.148,3.215,10.372,2.2,14.326.6C207.248-51.486,209.784-59.6,206.248-63.135ZM203.622-47.02a6.783,6.783,0,0,1-5.371.119c-2.316-1.249-2.095-5.519.119-7.042,1.4-.962,3.076-.953,4.894-1.314.139.02.213-.026.239-.119C203.781-52.829,203.543-49.765,203.622-47.02Z" transform="translate(-24.667 147.808)" fill="#ff7d23"></path><path id="Path_8" data-name="Path 8" d="M232.077-44.16H227.3V-52.4c0-2.775.475-6.138-.239-7.878-.889-2.168-4.208-2.081-6.566-1.193V-44.16h-4.656V-63.5c4.334-2.026,13.467-2.709,15.638,1.909C233.38-57.548,231.313-50.4,232.077-44.16Z" transform="translate(-27.695 147.812)" fill="#ff7d23"></path><path id="Path_9" data-name="Path 9" d="M252.842-63.365a8.621,8.621,0,0,0-5.968-1.552,7.945,7.945,0,0,0-3.343.835c-4.973,2.653-6.245,13.8-1.552,18.264a8.446,8.446,0,0,0,11.817-.6C257.523-50.9,256.551-60.332,252.842-63.365Zm-1.314,8.952c0,3.731-.941,9.11-5.371,7.162-3.1-1.362-3.459-12.369-.358-14.324a3.964,3.964,0,0,1,1.313-.358C250.82-62.491,251.529-58.421,251.529-54.413Z" transform="translate(-30.673 147.799)" fill="#ff7d23"></path><path id="Path_10" data-name="Path 10" d="M92.689-10.776c-.178-1.749-.474-3.971-.474-3.971-.8-5.483-1.334-10.907-2.371-16.389a.631.631,0,0,0-.682-.415.6.6,0,0,0-.652.474c-.385,2.015-.622,4.149-.919,6.283-.119,1.3-.385,2.964-.593,4.327-.5,3.26-.741,6.52-1.3,9.691,0,.385.207.563.652.563a.494.494,0,0,0,.533-.415c.385-1.867.5-3.764.741-5.661,1.245-.03,2.1-.3,3.142-.3.059.593.207,1.363.267,1.867.3,2.134.356,3.29.415,3.971a.574.574,0,0,0,.652.563C92.452-10.213,92.719-10.361,92.689-10.776ZM89.9-17.682a20.231,20.231,0,0,1-2.1.207c.237-2.252.622-4.5.919-6.757,0-.207.059-.445.059-.622l.415-3.7c.563,3.5.948,7.261,1.423,10.818A5.31,5.31,0,0,0,89.9-17.682Z" transform="translate(-10.996 143.513)" fill="#ff7d23"></path><path id="Path_11" data-name="Path 11" d="M100.021-25.046c.03-.711,0-1.719,0-2.845v-3.734c0-.326-.356-.5-.712-.5-.563,0-.563.622-.533,1.63.03.711.03,1.126.059,1.512a3.523,3.523,0,0,1,0,.563c0,1.067-.03,2.015-.03,2.993V-22.7l-.03,3.082c0,.3,0,.652.03.919,0,.3.03.622.03.919l-.03,1.749v2.519q0,1.378-.089,2.667a.577.577,0,0,0,.622.563.647.647,0,0,0,.682-.711V-13.25c.03-.593,0-1.156,0-1.749v-.919l-.059-2.134v-3.112Z" transform="translate(-12.666 143.587)" fill="#ff7d23"></path><path id="Path_12" data-name="Path 12" d="M105.271-23.582H106.4l.059,2.134-.03,1.986-.089,4.623c0,.8,0,1.156-.03,2.134.03,1.482.622,2.993,2.193,2.993a2.381,2.381,0,0,0,1.274-.3.609.609,0,0,0,.237-.533.521.521,0,0,0-.445-.533,1.939,1.939,0,0,0-.533.119,1.228,1.228,0,0,1-.445.059c-.652-.03-.948-.741-1.008-1.571-.03-.771-.03-.919-.03-1.3s.03-1.156.059-2.164v-4.979c0-.682.03-1.986.03-2.7h1.749a.528.528,0,0,0,.533-.593c0-.326-.148-.533-.593-.533-.267.03-1.3.059-1.719.059v-1.66l.03-1.067c-.059-.326-.178-.474-.593-.474-.3,0-.563.119-.593.593-.03.5-.03.8-.03,1.156v1.452l-.533.03h-.622a.525.525,0,0,0-.5.533A.475.475,0,0,0,105.271-23.582Z" transform="translate(-13.442 143.042)" fill="#ff7d23"></path><path id="Path_13" data-name="Path 13" d="M115.363-31.514a4.377,4.377,0,0,0,0,1.245.457.457,0,0,0,.533.415c.415,0,.622-.237.593-.533a3.65,3.65,0,0,1,.089-.948c0-.415-.237-.622-.741-.622A.508.508,0,0,0,115.363-31.514Zm-.059,6.55c-.03.711-.03,1.274-.03,1.986,0,1.067.03,2.371.059,3.408,0,.563.03,1.156.03,1.719.03,1.689.03,3.379.03,5.1,0,.711,0,1.245-.059,1.986,0,.356.356.5.652.5.711,0,.652-.919.622-1.838,0-1.9,0-4.179-.03-5.6,0-.593-.03-1.156-.03-1.749-.03-1.156-.059-2.282-.059-3.468,0-.711,0-1.274.03-1.986,0-.356-.356-.533-.682-.533A.5.5,0,0,0,115.3-24.965Z" transform="translate(-14.791 143.566)" fill="#ff7d23"></path><path id="Path_14" data-name="Path 14" d="M122.449-24.863c0,.978,0,2.134-.03,3.349-.03,1.363-.03,2.816-.03,4.149,0,2.193.03,4.446.089,6.194.03,1.423.059,2.993.059,4.12,0,.889-.682,1.867-1.3,1.867-.415,0-.5-.533-.593-.978-.059-.326-.237-.593-.593-.593-.474,0-.593.3-.593.474,0,1.245.474,2.163,1.571,2.163,2.134,0,2.727-1.54,2.727-3.289,0-.919-.03-2.46-.089-3.586-.059-1.274-.089-2.638-.089-3.883,0-1.393.03-3.2.059-5.009s.059-3.616.059-4.979a.581.581,0,0,0-.652-.533A.53.53,0,0,0,122.449-24.863Zm-.03-6.342a4.613,4.613,0,0,0,.089.741.513.513,0,0,0,.533.445c.326,0,.622-.237.593-.5s.059-.741.059-.978c0-.474-.326-.593-.741-.593C122.568-32.095,122.42-31.8,122.42-31.206Z" transform="translate(-15.328 143.583)" fill="#ff7d23"></path><path id="Path_15" data-name="Path 15" d="M134.141-31.558l.03,4c0,1.1-.03,2.223,0,2.816a2.129,2.129,0,0,0-1.749-.771c-2.1,0-2.46,2.164-2.46,3.734v1.512c0,1.126,0,2.371.03,3.23l.03,1.512v2.1c0,1.778.326,3.26,2.341,3.26a2.2,2.2,0,0,0,1.689-.741l.326-.445.059.3c.207.622.356.83.652.83.474,0,.652-.207.652-.563a1.336,1.336,0,0,0-.089-.326,2.94,2.94,0,0,1-.178-.771c-.119-1.274-.148-2.519-.148-3.794v-2.667c0-.3.03-.593.03-.919V-22.34c0-.741,0-1.778-.03-2.608-.03-.593,0-1.215,0-1.867,0-.445.03-.889.03-1.3,0-.445.03-1.1.03-1.6v-1.037c.03-.8-.03-1.274-.5-1.3C134.467-32.091,134.141-31.884,134.141-31.558Zm0,18.553c-.089,1.126-.682,1.778-1.66,1.778-1.156,0-1.3-1.1-1.3-2.371l-.03-.771.059-1.1c-.059-1.008-.059-2.015-.059-3.082,0-1.1,0-2.519-.059-3.675.119-1.126.622-2.164,1.363-2.164a1.545,1.545,0,0,1,1.6,1.126,9.5,9.5,0,0,1,.119,2.075v1.334c0,.385-.03.741-.03,1.1v3.2c0,.385.03.741.03,1.067C134.171-13.923,134.171-13.449,134.141-13Z" transform="translate(-16.676 143.579)" fill="#ff7d23"></path><path id="Path_16" data-name="Path 16" d="M150.075-31.514a4.378,4.378,0,0,0,0,1.245.457.457,0,0,0,.533.415c.415,0,.622-.237.593-.533a3.65,3.65,0,0,1,.089-.948c0-.415-.237-.622-.741-.622A.508.508,0,0,0,150.075-31.514Zm-.059,6.55c-.03.711-.03,1.274-.03,1.986,0,1.067.03,2.371.059,3.408,0,.563.03,1.156.03,1.719.03,1.689.03,3.379.03,5.1,0,.711,0,1.245-.059,1.986,0,.356.356.5.652.5.711,0,.652-.919.622-1.838,0-1.9,0-4.179-.03-5.6,0-.593-.03-1.156-.03-1.749-.03-1.156-.059-2.282-.059-3.468,0-.711,0-1.274.03-1.986,0-.356-.356-.533-.682-.533A.5.5,0,0,0,150.016-24.965Z" transform="translate(-19.245 143.566)" fill="#ff7d23"></path><path id="Path_17" data-name="Path 17" d="M157.33-23.895c.089.948.119,1.867.119,2.816,0,.652-.03,1.245-.03,1.9v5.513l-.03,3.942c0,.356.326.474.593.474a.616.616,0,0,0,.682-.533l-.059-4.09.03-3.438v-2.371c0-.474,0-1.008-.03-1.423a2.718,2.718,0,0,1,.8-1.808,1.651,1.651,0,0,1,1.126-.5c.682,0,1.245.385,1.274,1.66v4.031c0,.83-.03,2.223,0,3.082v3.023c0,.119-.03.237-.03.326v1.274c0,.5.207.682.741.682.445,0,.5-.385.5-.711v-.3c0-.859,0-1.926-.03-2.727-.059-.8-.03-1.6-.03-2.4l.03-2.845c0-.207-.03-.415-.03-.622V-19.6l.03-1.778a3.92,3.92,0,0,0-.741-2.578,1.809,1.809,0,0,0-1.393-.593,2.311,2.311,0,0,0-1.689.652,6.343,6.343,0,0,0-.563.771l-.089-.948a.5.5,0,0,0-.533-.385C157.6-24.428,157.33-24.28,157.33-23.895Z" transform="translate(-20.187 142.615)" fill="#ff7d23"></path><path id="Path_18" data-name="Path 18" d="M181.432-31.558l.03,4c0,1.1-.03,2.223,0,2.816a2.129,2.129,0,0,0-1.749-.771c-2.1,0-2.46,2.164-2.46,3.734v1.512c0,1.126,0,2.371.03,3.23l.03,1.512v2.1c0,1.778.326,3.26,2.341,3.26a2.2,2.2,0,0,0,1.689-.741l.326-.445.059.3c.207.622.356.83.652.83.474,0,.652-.207.652-.563a1.336,1.336,0,0,0-.089-.326,2.941,2.941,0,0,1-.178-.771c-.119-1.274-.148-2.519-.148-3.794v-2.667c0-.3.03-.593.03-.919V-22.34c0-.741,0-1.778-.03-2.608-.03-.593,0-1.215,0-1.867,0-.445.03-.889.03-1.3,0-.445.03-1.1.03-1.6v-1.037c.03-.8-.03-1.274-.5-1.3C181.758-32.091,181.432-31.884,181.432-31.558Zm0,18.553c-.089,1.126-.682,1.778-1.66,1.778-1.156,0-1.3-1.1-1.3-2.371l-.03-.771.059-1.1c-.059-1.008-.059-2.015-.059-3.082,0-1.1,0-2.519-.059-3.675.119-1.126.622-2.164,1.363-2.164a1.545,1.545,0,0,1,1.6,1.126,9.5,9.5,0,0,1,.119,2.075v1.334c0,.385-.03.741-.03,1.1v3.2c0,.385.03.741.03,1.067C181.462-13.923,181.462-13.449,181.432-13Z" transform="translate(-22.743 143.579)" fill="#ff7d23"></path><path id="Path_19" data-name="Path 19" d="M193.993-17.256c.089-.03.207-.207.237-.267a7.786,7.786,0,0,0,.207-2.312v-.533c0-2.075-.03-4.179-2.727-4.179-2.223,0-2.49,2.252-2.49,3.942,0,.178.03,1.067.03,1.274v1.9l-.03,2.223c.03.385.03.8.03,1.867,0,1.749.089,4.12,2.371,4.12,2.667,0,2.816-1.956,2.816-4.06v-.5a.576.576,0,0,0-.622-.5.56.56,0,0,0-.593.593v1.3c-.03,1.334-.267,2.075-1.719,2.075-.889,0-1.1-1.571-1.1-3.379v-2.638c.593-.119,1.274-.237,1.986-.445l.385-.059Zm-3.5-1.867-.03-.859v-.8c0-1.452.267-2.667,1.3-2.667.8,0,1.423.563,1.423,1.66,0,.326,0,.682.03.978v1.571a2.112,2.112,0,0,1-.267,1.126,11.32,11.32,0,0,1-2.49.622C190.5-18.056,190.5-18.59,190.5-19.123Z" transform="translate(-24.279 142.615)" fill="#ff7d23"></path><path id="Path_20" data-name="Path 20" d="M209.87-31.723c0-.326-.267-.474-.711-.474-.563,0-.563.771-.533,1.689,0,.445.03.919.03,1.334v.948c0,.919-.03,2.252-.059,3.171-.03.563,0,1.1,0,1.63,0,.326.03.682.03.978v4c0,.3.03.622.03.919l-.03,1.749v1.363c0,.533.03,1.1.03,1.63,0,.682-.03,1.363-.089,2.015,0,.356.237.5.593.5.5,0,.652-.207.711-.771a2.419,2.419,0,0,0,1.926.8c1.838-.178,2.134-1.512,2.193-3.527V-14c0-.059-.03-.148-.03-.267l.03-1.363-.03-.741c0-.207.059-.593.059-.771.059-1.334-.03-2.638-.03-4.742a5.68,5.68,0,0,0-.593-2.934,2.111,2.111,0,0,0-1.66-.682,2.332,2.332,0,0,0-1.9,1.037v-4.979c0-.622.03-1.185.03-1.63Zm-.03,18.79v-2.727l-.03-2.1V-21.2a6.05,6.05,0,0,1,.178-1.778,1.769,1.769,0,0,1,1.689-1.423.919.919,0,0,1,.771.5,3.646,3.646,0,0,1,.326,1.482c0,.059.03.148.03.207-.059,1.274,0,2.341,0,3.556v1.067c0,.682.03,1.334,0,2.015l-.03,1.126v.948a3.257,3.257,0,0,1-.415,1.66,1.192,1.192,0,0,1-.978.5C210.552-11.332,209.929-11.836,209.84-12.933Z" transform="translate(-26.761 143.596)" fill="#ff7d23"></path><path id="Path_21" data-name="Path 21" d="M224.666-12.768c-.03,1.156-.593,2.223-1.452,2.371a1.823,1.823,0,0,1-.385.03c-1.037,0-1.245-1.215-1.215-2.727,0-1.6.03-2.993,0-4.06-.03-1.63-.03-2.193,0-2.7,0-.445.03-1.126.03-1.541.03-1.067,0-1.689,0-2.578,0-.326-.3-.474-.622-.474-.3,0-.563.148-.563.445v4.89c-.03,1.571-.03,3.23-.03,4.8v1.067c0,.089-.03.593-.03.889,0,1.571.533,3.023,2.252,3.142a2.542,2.542,0,0,0,2.223-1.274,3.167,3.167,0,0,0,.356.948.512.512,0,0,0,.652.267c.3-.119.533-.385.385-.682a4.139,4.139,0,0,1-.356-1.778l-.03-.771c.059-1.778.089-3.645.089-5.453,0-.919-.03-1.808-.03-2.727v-3.29c0-.326-.326-.474-.622-.474-.237,0-.563.148-.563.445l.03,1.067c.03,2.134-.03,3.468,0,4.8.03,1.1-.03,2.312-.089,3.408C224.7-13.39,224.7-13.361,224.666-12.768Z" transform="translate(-28.279 142.602)" fill="#ff7d23"></path><path id="Path_22" data-name="Path 22" d="M236.8-12.768c-.03,1.156-.593,2.223-1.452,2.371a1.823,1.823,0,0,1-.385.03c-1.037,0-1.245-1.215-1.215-2.727,0-1.6.03-2.993,0-4.06-.03-1.63-.03-2.193,0-2.7,0-.445.03-1.126.03-1.541.03-1.067,0-1.689,0-2.578,0-.326-.3-.474-.622-.474-.3,0-.563.148-.563.445v4.89c-.03,1.571-.03,3.23-.03,4.8v1.067c0,.089-.03.593-.03.889,0,1.571.533,3.023,2.252,3.142a2.542,2.542,0,0,0,2.223-1.274,3.169,3.169,0,0,0,.356.948.512.512,0,0,0,.652.267c.3-.119.533-.385.385-.682a4.139,4.139,0,0,1-.356-1.778l-.03-.771c.059-1.778.089-3.645.089-5.453,0-.919-.03-1.808-.03-2.727v-3.29c0-.326-.326-.474-.622-.474-.237,0-.563.148-.563.445l.03,1.067c.03,2.134-.03,3.468,0,4.8.03,1.1-.03,2.312-.089,3.408C236.833-13.39,236.833-13.361,236.8-12.768Z" transform="translate(-29.837 142.602)" fill="#ff7d23"></path><path id="Path_23" data-name="Path 23" d="M244.639-23.64c.178,2.134.148,4.623.148,6.728,0,1.008.03,2.193,0,3.408s-.059,2.519-.059,3.586a.554.554,0,0,0,.622.593.567.567,0,0,0,.622-.593v-1.008c0-.682.03-1.541,0-2.164-.03-.8-.03-1.6-.03-2.519,0-.859.03-1.393.03-2.1.03-.326.03-.83.03-1.363a5.6,5.6,0,0,1,1.1-3.349c.326-.385.682-.8,1.156-.8.445.03.593-.237.593-.622a.529.529,0,0,0-.563-.563,1.516,1.516,0,0,0-.593.089,2.474,2.474,0,0,0-1.215,1.156,5,5,0,0,0-.563,1.126,13.445,13.445,0,0,0-.119-1.926.543.543,0,0,0-.593-.415C244.728-24.381,244.58-24.026,244.639-23.64Z" transform="translate(-31.388 142.597)" fill="#ff7d23"></path><path id="Path_24" data-name="Path 24" d="M253-23.582h1.126l.059,2.134-.03,1.986-.089,4.623c0,.8,0,1.156-.03,2.134.03,1.482.622,2.993,2.193,2.993a2.381,2.381,0,0,0,1.274-.3.609.609,0,0,0,.237-.533.521.521,0,0,0-.445-.533,1.938,1.938,0,0,0-.533.119,1.229,1.229,0,0,1-.445.059c-.652-.03-.948-.741-1.008-1.571-.03-.771-.03-.919-.03-1.3s.03-1.156.059-2.164v-4.979c0-.682.03-1.986.03-2.7h1.749a.528.528,0,0,0,.534-.593c0-.326-.148-.533-.593-.533-.267.03-1.3.059-1.719.059v-1.66l.03-1.067c-.059-.326-.178-.474-.593-.474-.3,0-.563.119-.593.593-.03.5-.03.8-.03,1.156v1.452l-.534.03H253a.525.525,0,0,0-.5.533A.475.475,0,0,0,253-23.582Z" transform="translate(-32.397 143.042)" fill="#ff7d23"></path></g></g></svg>