<?xml version="1.0" encoding="UTF-8"?>
<svg xmlns="http://www.w3.org/2000/svg" id="a" width="210" height="82" viewBox="0 0 210 82">
  <rect x="106.66" y="24.97" width="1.13" height="27.93" stroke-width="0"></rect>
  <path d="m81.36,32.84h-1.12v4.9c-.48-.9-1.1-1.74-1.85-2.49-2.01-2.01-4.68-3.11-7.52-3.11h0c-5.86,0-10.63,4.77-10.63,10.64,0,2.84,1.11,5.51,3.11,7.52,2.01,2.01,4.68,3.11,7.52,3.11h0c2.84,0,5.51-1.11,7.52-3.11.75-.75,1.37-1.58,1.85-2.49v5.09h1.12l.05-8.48v-3.29l-.05-8.29Zm-1.12,11.49c-.75,4.46-4.66,7.96-9.37,7.96h0c-2.54,0-4.93-.99-6.72-2.79-1.8-1.8-2.78-4.19-2.78-6.72s.99-4.93,2.78-6.73c1.79-1.8,4.18-2.79,6.72-2.79h0c2.54,0,4.93.99,6.72,2.79,1.42,1.42,2.48,3.51,2.65,5.15.17,1.64.19,2.02,0,3.13Z" stroke-width="0"></path>
  <path d="m204.5,34.72c-.69.56-1.27,1.2-1.73,1.89v-3.77h-1.23v6.49c.02.4,0,.8,0,1.2v12.37h1.11v-12.75l.13-.73c.29-1.42,1.15-2.77,2.44-3.83,1.46-1.19,3.26-1.79,4.56-1.51l.23-1.1c-1.65-.34-3.76.32-5.5,1.74Z" stroke-width="0"></path>
  <path d="m121.85,37.34c0-1.35-.53-2.63-1.49-3.58-.96-.96-2.23-1.49-3.58-1.49-2.8,0-5.07,2.27-5.07,5.07,0,1.35.46,2.57,1.42,3.53.29.29.68.59,1.01.79l5.7,2.3c1.38.75,2,2.1,2,3.44,0,2.76-2.49,4.88-5.25,4.88-1.34,0-2.59-.52-3.54-1.47-.95-.95-1.47-2.2-1.47-3.54h-1.12c0,1.64.64,3.18,1.79,4.33,1.16,1.16,2.7,1.8,4.34,1.8s3.31-.66,4.47-1.82c1.16-1.16,1.91-2.55,1.91-4.18s-1.06-3.78-2.56-4.41l-4.48-1.81c-.83-.28-1.39-.52-1.93-1.06-.74-.74-1.15-1.73-1.15-2.79s.41-2.04,1.15-2.79c.74-.74,1.74-1.16,2.79-1.16s2.04.41,2.79,1.16c.74.75,1.15,1.74,1.15,2.79h1.13Z" stroke-width="0"></path>
  <path d="m103.27,37.71l.81-.84c-.39-.57-.83-1.12-1.33-1.62-2.01-2.01-4.68-3.11-7.52-3.11-.36,0-.71.02-1.06.05-5.37.53-9.58,5.07-9.58,10.58,0,2.84,1.1,5.51,3.11,7.52,1.76,1.76,4.02,2.82,6.46,3.06.35.03.7.05,1.06.05,2.44,0,4.77-.81,6.64-2.31v-1.54c-1.72,1.69-4.05,2.73-6.64,2.73-.36,0-.71-.02-1.06-.06-1.94-.22-3.74-1.02-5.21-2.32l5.21-4.44,9.11-7.76Zm-15.12,11.4c-1.57-1.75-2.44-3.97-2.44-6.34,0-2.54.99-4.93,2.79-6.73,1.55-1.54,3.53-2.49,5.67-2.73.35-.04.7-.06,1.06-.06,2.54,0,4.93.99,6.73,2.79.24.24.46.49.67.74l-8.45,7.2-6.01,5.12Z" stroke-width="0"></path>
  <path d="m177.14,37.71l.81-.84c-.39-.57-.83-1.12-1.33-1.62-2.01-2.01-4.68-3.11-7.52-3.11-.36,0-.71.02-1.06.05-5.37.53-9.58,5.08-9.58,10.58,0,2.84,1.11,5.51,3.11,7.52,1.76,1.76,4.02,2.82,6.46,3.06.35.03.7.05,1.06.05,2.44,0,4.77-.81,6.64-2.31v-1.54c-1.71,1.69-4.05,2.73-6.64,2.73-.36,0-.71-.02-1.06-.06-1.94-.22-3.74-1.02-5.21-2.32l5.21-4.44,9.11-7.76Zm-15.12,11.4c-1.57-1.75-2.44-3.97-2.44-6.34,0-2.54.99-4.93,2.79-6.73,1.54-1.54,3.53-2.49,5.67-2.73.35-.04.7-.06,1.06-.06,2.54,0,4.93.99,6.73,2.79.24.24.46.49.67.74l-8.45,7.2-6.01,5.12Z" stroke-width="0"></path>
  <path d="m198.23,37.71l.8-.84c-.39-.57-.83-1.12-1.33-1.62-2.01-2.01-4.68-3.11-7.52-3.11-.36,0-.71.02-1.06.05-5.37.53-9.58,5.08-9.58,10.58,0,2.84,1.11,5.51,3.11,7.52,1.76,1.76,4.02,2.82,6.46,3.06.35.03.7.05,1.06.05,2.43,0,4.76-.81,6.64-2.31v-1.54c-1.71,1.69-4.05,2.73-6.64,2.73-.36,0-.71-.02-1.06-.06-1.94-.22-3.74-1.02-5.21-2.32l5.21-4.44,9.11-7.76Zm-15.12,11.4c-1.57-1.75-2.44-3.97-2.44-6.34,0-2.54.99-4.93,2.79-6.73,1.55-1.54,3.53-2.49,5.67-2.73.35-.04.7-.06,1.06-.06,2.54,0,4.93.99,6.72,2.79.24.24.46.49.67.74l-8.45,7.2-6.01,5.12Z" stroke-width="0"></path>
  <path d="m155.76,40.38c-.06-2-.87-3.87-2.29-5.29-1.47-1.47-3.44-2.29-5.52-2.29-3.25,0-6.03,1.99-7.21,4.82-.39-.93-.96-1.79-1.69-2.53-1.48-1.47-3.44-2.29-5.52-2.29-2.84,0-5.32,1.53-6.69,3.8v-3.25h-1.12v19.54h1.12v-12.28h0c0-1.78.69-3.46,1.96-4.73,1.26-1.26,2.94-1.96,4.73-1.96s3.46.7,4.73,1.96c1.1,1.1,1.69,2.33,1.85,3.86-.02.16,0,.21,0,.37v12.77s1.12,0,1.12,0l.06-12.28c0-.22.02-.45,0-.67.15-1.53.84-2.95,1.94-4.06,1.26-1.26,2.94-1.96,4.73-1.96s3.46.7,4.73,1.96c1.27,1.26,1.97,2.94,1.97,4.73v12.28h1.14l-.02-12.51Z" stroke-width="0"></path>
  <path d="m75.77,82c-.23.04-.42-.15-.6-.27-2.94-3.51-6.26-7.69-10.41-9.31-6.69-2.58-16.18-1.88-23.98-3.43-14.97-2.83-18.72-21.77-21.64-30.77-1.33-4.1-2.45-8.22-3.09-12.59-.12-.94.54-1.13,1.02-.53.42.26.49.72.72,1.09,4.9,10.14,7.62,21.64,17.57,29.22,6.63,4.15,16.4,1.23,22.96,5.17,6.22,4.15,10.71,10.5,15.12,16.29,1.32,1.74,2.26,2.49,2.9,4.79-.15.19-.38.26-.56.34Z" fill="#008c3c" stroke-width="0"></path>
  <path d="m42.89,53.54c5.89,0,10.66-4.77,10.66-10.66s-4.77-10.67-10.66-10.67-10.66,4.77-10.66,10.67,4.78,10.66,10.66,10.66Z" fill="#e20615" stroke-width="0"></path>
  <path d="m5.08,22.32l-.68-.97.48-7.87c.03-.56.09-1.06.16-1.51L.65,15.06l-.65-.93,5.63-3.97.65.93-.57,8.56-.09.89,5.02-3.54.65.93-6.22,4.38Z" stroke-width="0"></path>
  <path d="m9.8,13.35c-.68-1.44-.83-2.75-.45-3.94.39-1.18,1.19-2.07,2.42-2.65.8-.38,1.62-.53,2.44-.46.83.08,1.57.38,2.23.9.66.52,1.2,1.22,1.61,2.09.42.88.61,1.75.59,2.62s-.28,1.63-.76,2.3c-.48.67-1.1,1.18-1.86,1.54-.82.39-1.64.54-2.47.45-.83-.09-1.58-.4-2.23-.92-.66-.53-1.17-1.17-1.53-1.93Zm1.19-.54c.5,1.05,1.17,1.74,2.02,2.07.85.34,1.7.3,2.55-.1.87-.41,1.43-1.05,1.7-1.93.27-.87.14-1.87-.39-2.99-.34-.71-.75-1.27-1.24-1.68s-1.03-.66-1.63-.73c-.6-.07-1.18.03-1.76.3-.81.39-1.38,1-1.7,1.84-.32.84-.17,1.91.45,3.22Z" stroke-width="0"></path>
  <path d="m21.35,13.26l-2.64-9.25,4.1-1.17c.82-.23,1.48-.33,1.95-.29.48.04.9.24,1.28.59.38.35.64.78.78,1.28.19.66.13,1.27-.16,1.84-.3.57-.87,1.04-1.72,1.42.37.06.66.15.87.25.45.23.91.54,1.37.94l2.33,2.06-1.54.44-1.77-1.58c-.52-.45-.93-.79-1.25-1.02s-.58-.38-.8-.44c-.22-.07-.43-.09-.63-.09-.15.01-.38.06-.69.15l-1.42.4,1.17,4.11-1.22.35Zm-.25-5.52l2.63-.75c.56-.16.98-.34,1.26-.55.28-.21.47-.46.56-.76.09-.3.09-.6,0-.9-.12-.44-.39-.75-.78-.94-.4-.19-.94-.19-1.63,0l-2.93.83.87,3.06Z" stroke-width="0"></path>
  <path d="m34.35,6.5l-.14-1.12,4.04-.52.45,3.54c-.56.57-1.15,1.03-1.78,1.36-.63.33-1.29.54-1.98.63-.94.12-1.81.02-2.63-.28-.82-.3-1.47-.81-1.95-1.52-.49-.71-.79-1.53-.91-2.47-.12-.93-.03-1.82.25-2.67s.77-1.52,1.45-2c.68-.48,1.49-.78,2.45-.9.69-.09,1.33-.05,1.91.1.59.15,1.06.41,1.43.77.37.36.67.85.92,1.47l-1.1.46c-.2-.47-.43-.83-.68-1.08-.25-.25-.58-.43-.99-.55-.42-.12-.87-.15-1.35-.09-.58.07-1.07.22-1.46.45s-.71.5-.93.82-.38.66-.48,1.02c-.17.62-.21,1.28-.12,1.97.11.85.34,1.54.71,2.08.37.54.85.91,1.44,1.11.59.21,1.21.27,1.84.19.55-.07,1.07-.24,1.56-.52.49-.28.86-.55,1.1-.82l-.22-1.78-2.81.35Z" stroke-width="0"></path>
  <path d="m45,6.01l.03-1.13,4.07.09-.08,3.57c-.64.48-1.29.84-1.96,1.08s-1.36.35-2.06.33c-.94-.02-1.8-.24-2.56-.67-.76-.42-1.33-1.02-1.71-1.8-.38-.77-.55-1.63-.53-2.58.02-.94.24-1.8.65-2.61s.99-1.39,1.73-1.77S44.18-.02,45.13,0c.7.02,1.32.14,1.88.38s.99.56,1.3.97c.31.41.54.94.69,1.59l-1.16.29c-.13-.49-.3-.88-.51-1.17-.21-.28-.51-.52-.9-.69s-.83-.27-1.32-.28c-.58-.01-1.09.06-1.51.23-.43.17-.78.39-1.04.67-.27.28-.48.6-.63.94-.26.59-.4,1.23-.41,1.93-.02.86.11,1.58.39,2.16.28.58.7,1.02,1.26,1.32.56.29,1.15.45,1.79.46.55.01,1.09-.08,1.62-.28.53-.2.93-.42,1.21-.65l.04-1.79-2.83-.07Z" stroke-width="0"></path>
  <path d="m50.57,10.07l1.54-9.49,4.21.68c.85.14,1.48.33,1.89.57.41.24.71.6.91,1.08.19.47.25.97.16,1.5-.11.67-.42,1.21-.93,1.6-.51.39-1.23.58-2.16.55.31.21.53.41.68.6.31.4.59.87.84,1.43l1.23,2.85-1.58-.26-.94-2.18c-.27-.63-.51-1.11-.69-1.46-.19-.34-.37-.59-.53-.74-.17-.15-.35-.27-.53-.35-.14-.05-.37-.11-.69-.16l-1.46-.24-.69,4.22-1.26-.2Zm2.12-5.1l2.7.44c.57.09,1.03.11,1.38.04.34-.07.62-.22.83-.45s.34-.5.39-.81c.07-.45-.03-.84-.31-1.19-.28-.34-.77-.57-1.47-.69l-3-.49-.51,3.14Z" stroke-width="0"></path>
  <path d="m60.81,7.07c.47-1.52,1.25-2.59,2.34-3.2,1.09-.61,2.28-.71,3.57-.31.85.26,1.55.7,2.11,1.32.56.62.9,1.34,1.03,2.18.13.84.06,1.71-.23,2.63-.29.93-.73,1.71-1.34,2.33s-1.31,1.01-2.12,1.18c-.81.16-1.61.12-2.41-.12-.86-.27-1.57-.72-2.12-1.34-.55-.63-.89-1.36-1.02-2.19s-.07-1.65.18-2.46Zm1.25.41c-.34,1.11-.32,2.07.08,2.89.4.82,1.05,1.37,1.94,1.65.91.28,1.77.2,2.56-.27.79-.46,1.37-1.28,1.74-2.46.23-.75.31-1.44.23-2.08s-.32-1.18-.71-1.64c-.39-.46-.89-.78-1.5-.97-.86-.27-1.69-.2-2.5.2-.8.4-1.42,1.29-1.85,2.67Z" stroke-width="0"></path>
  <path d="m69.45,14.83l4.11-8.7,6.29,2.97-.48,1.03-5.14-2.43-1.26,2.66,4.81,2.27-.48,1.02-4.81-2.27-1.4,2.96,5.34,2.52-.48,1.03-6.49-3.06Z" stroke-width="0"></path>
  <path d="m77.19,18.61l5.26-8.05,3.04,1.99c.53.35.93.64,1.17.88.35.32.6.67.75,1.03.15.36.19.76.14,1.2s-.21.86-.47,1.26c-.45.68-1.04,1.12-1.79,1.31-.75.19-1.69-.09-2.83-.83l-2.06-1.35-2.14,3.27-1.07-.7Zm3.83-3.53l2.08,1.36c.69.45,1.26.64,1.72.57.46-.07.84-.33,1.14-.8.22-.34.32-.68.31-1.03s-.13-.66-.36-.91c-.15-.16-.46-.41-.95-.72l-2.06-1.35-1.88,2.88Z" stroke-width="0"></path>
</svg>
