<svg width="174" height="64" viewBox="0 0 174 64" xmlns="http://www.w3.org/2000/svg"><path d="M14.23 0c7.858 0 14.23 6.383 14.23 14.23 0 11.763 9.542 21.31 21.305 21.31 7.859 0 14.23 6.372 14.23 14.23 0 7.86-6.371 14.23-14.23 14.23s-14.23-6.37-14.23-14.23c0-11.764-9.542-21.31-21.305-21.31C6.443 28.46 0 22.087 0 14.23 0 6.37 6.37 0 14.23 0zm0 40.663a9.107 9.107 0 110 18.214 9.107 9.107 0 010-18.214zM127.692 23.63c1.617 0 2.892.288 3.824.864.931.576 1.576 1.207 1.932 1.891V24h5.264v18.052c0 1.398-.2 2.734-.596 4.009a9.263 9.263 0 01-1.871 3.371c-.85.973-1.947 1.754-3.29 2.344-1.343.59-2.96.884-4.852.884-1.398 0-2.666-.199-3.803-.596-1.138-.398-2.132-.932-2.981-1.604a8.34 8.34 0 01-2.057-2.343 7.585 7.585 0 01-.986-2.776l4.934-1.316c.191 1.124.699 2.042 1.521 2.755.823.713 1.892 1.07 3.208 1.07 1.727 0 3.056-.446 3.988-1.337.932-.891 1.398-2.323 1.398-4.297v-1.48c-.411.658-1.083 1.254-2.015 1.788-.932.535-2.138.802-3.618.802-1.344 0-2.59-.246-3.742-.74a8.916 8.916 0 01-2.981-2.056 9.674 9.674 0 01-1.974-3.104c-.48-1.193-.72-2.501-.72-3.927 0-1.343.233-2.611.7-3.804a10.081 10.081 0 011.932-3.145 8.92 8.92 0 012.96-2.138c1.152-.52 2.427-.782 3.825-.782zm-30.958-9.169c1.754 0 3.255.24 4.503.72 1.247.48 2.282 1.09 3.104 1.83.823.74 1.46 1.555 1.912 2.446.452.891.761 1.747.925 2.57l-5.098 1.562a6.827 6.827 0 00-.432-1.336 4.275 4.275 0 00-.925-1.336c-.411-.412-.94-.754-1.583-1.028-.645-.274-1.433-.412-2.364-.412-.686 0-1.31.103-1.871.309a4.6 4.6 0 00-1.44.822 3.769 3.769 0 00-.925 1.172 3.08 3.08 0 00-.329 1.398c0 .795.26 1.487.782 2.077.52.59 1.315.993 2.384 1.213l4.071.78c1.316.248 2.48.645 3.495 1.193 1.014.55 1.864 1.2 2.55 1.953a7.979 7.979 0 011.562 2.53c.356.931.535 1.905.535 2.919a8.3 8.3 0 01-.7 3.31 8.559 8.559 0 01-2.035 2.878c-.89.837-1.988 1.515-3.29 2.035-1.302.52-2.802.782-4.502.782-1.946 0-3.618-.282-5.016-.843-1.398-.562-2.57-1.281-3.516-2.159-.946-.877-1.665-1.857-2.159-2.94-.493-1.083-.795-2.144-.904-3.187l5.263-1.398c.055.713.226 1.398.514 2.056a5.5 5.5 0 001.213 1.748c.52.507 1.165.911 1.933 1.213.767.302 1.671.452 2.713.452 1.535 0 2.707-.335 3.516-1.007.808-.672 1.213-1.528 1.213-2.57 0-.85-.302-1.583-.905-2.2-.603-.617-1.48-1.034-2.631-1.254l-4.07-.823c-2.331-.465-4.189-1.418-5.572-2.857-1.385-1.44-2.077-3.27-2.077-5.49 0-1.288.267-2.487.802-3.598a9.083 9.083 0 012.2-2.898 10.429 10.429 0 013.248-1.933 10.964 10.964 0 013.906-.699zm68.09 8.923c1.59 0 2.947.212 4.072.637 1.123.425 2.036.987 2.734 1.686a6.233 6.233 0 011.521 2.447 9.06 9.06 0 01.473 2.919v9.95c0 .55.026 1.132.083 1.748a22.9 22.9 0 00.164 1.46h-5.017c-.055-.274-.102-.65-.144-1.13-.04-.48-.06-.912-.06-1.296-.523.795-1.27 1.494-2.241 2.097-.974.602-2.215.905-3.723.905-1.068 0-2.034-.172-2.898-.514-.863-.343-1.597-.795-2.2-1.357a5.734 5.734 0 01-1.377-1.933 5.665 5.665 0 01-.473-2.282c0-.905.157-1.706.473-2.405.314-.7.746-1.31 1.295-1.83a6.206 6.206 0 011.912-1.234c.726-.301 1.514-.52 2.365-.658l4.975-.74c.575-.082.973-.253 1.193-.514.218-.26.328-.568.328-.925 0-.713-.28-1.33-.842-1.85-.564-.52-1.42-.782-2.571-.782-1.207 0-2.13.33-2.776.987-.643.658-1.007 1.426-1.089 2.303l-4.852-1.028c.082-.795.329-1.59.74-2.385a7.357 7.357 0 011.686-2.138c.713-.63 1.59-1.144 2.632-1.542 1.04-.397 2.247-.596 3.617-.596zm-49.02.616v20.23h-5.468V24h5.469zm37.71-.164a9.748 9.748 0 011.274.082v5.51a8.415 8.415 0 00-1.644-.164c-.713 0-1.385.096-2.015.287a4.116 4.116 0 00-1.645.946c-.466.44-.843 1.022-1.13 1.748-.289.727-.432 1.638-.432 2.734v9.252h-5.47V24h5.305v3.001c.301-.658.692-1.199 1.172-1.624a5.36 5.36 0 011.522-.966 7.039 7.039 0 011.603-.453 9.679 9.679 0 011.46-.123zm14.765 11.308l-4.565.699c-.713.11-1.309.363-1.787.76-.48.398-.72.994-.72 1.789 0 .603.22 1.145.658 1.624.438.48 1.096.72 1.973.72.576 0 1.13-.075 1.666-.226a3.517 3.517 0 001.419-.782c.41-.37.74-.849.986-1.439.247-.589.37-1.336.37-2.24v-.905zM128.638 28.4a5.16 5.16 0 00-1.912.35 4.346 4.346 0 00-1.542 1.028 4.828 4.828 0 00-1.028 1.624c-.247.63-.37 1.33-.37 2.097 0 1.59.452 2.844 1.357 3.762.904.92 2.069 1.378 3.495 1.378 1.398 0 2.542-.466 3.433-1.398.89-.932 1.336-2.18 1.336-3.742 0-1.563-.466-2.803-1.398-3.721-.932-.918-2.056-1.378-3.371-1.378zM49.765 0c7.859 0 14.23 6.37 14.23 14.23 0 7.858-6.371 14.23-14.23 14.23s-14.23-6.372-14.23-14.23C35.535 6.37 41.906 0 49.765 0zm63.285 13.968c.959 0 1.76.329 2.405.986.644.658.966 1.467.966 2.426 0 .905-.322 1.686-.966 2.344-.644.658-1.446.987-2.405.987a3.25 3.25 0 01-2.385-.987c-.658-.658-.987-1.439-.987-2.344 0-.959.329-1.768.987-2.426a3.25 3.25 0 012.385-.986z" fill="#EC4C52" fill-rule="evenodd"/></svg>